<?xml version="1.0" encoding="UTF-8"?><svg id="uuid-0f0e0985-8fa3-46b1-af66-ecb8bd2d02f4" xmlns="http://www.w3.org/2000/svg" width="2114" height="812.1354" xmlns:xlink="http://www.w3.org/1999/xlink" viewBox="0 0 2114 812.1354"><defs><style>.uuid-bc3ecfd9-c2d7-44b2-ace6-18c57bac61b9{fill:url(#uuid-d0a2e088-fe36-4fc4-924a-bda40345ef3c);}.uuid-d4775175-ffc0-4af9-a491-b7ce060a6caa{fill:url(#uuid-0fa97598-ba42-49c8-b6c1-3fb2c8be8f96);}.uuid-9a419474-002e-4132-8120-7084438c08e6{fill:url(#uuid-08b04748-a042-47b6-a4b1-8a22c244c88d);}.uuid-b6cc076a-ce57-4292-9054-74d23e7e7078{fill:url(#uuid-fbfc4627-a900-441f-b366-8ccb9edfe895);}.uuid-f8533eb6-c4b5-4725-9f1e-f651fd399d27{fill:url(#uuid-023a2fa4-52e7-48eb-b1b0-3611e4a1e9de);}.uuid-60b8e16d-6648-4a17-913e-9e6ba35479a5{fill:url(#uuid-73ab4eb7-6bf8-4ad3-a0ec-e8e544b10ac1);}.uuid-8aedfed8-7b2b-42bb-8fdd-4615d0bba163{fill:url(#uuid-18472eb7-45b1-4feb-bae1-5fec0c57ecd9);}.uuid-affb1ebe-9470-4674-a942-469154ec7f6d{fill:url(#uuid-37770957-14dd-4610-b84a-3ac929d42e03);}.uuid-2764e919-ddf2-49e3-adf2-c3dc0865ea2d{fill:url(#uuid-479f49ae-3bfd-4994-a2a7-a9219edbf59c);}.uuid-70024b63-2f4c-4a93-9637-77106b292e7d{fill:url(#uuid-35e23c4d-ae90-45bd-adbd-b5e7efbf81c3);}.uuid-9f71863e-fdbe-4f2f-9d27-c30358208b36{fill:url(#uuid-fcde93ea-ebda-4453-b526-550c409decfb);}.uuid-99c7b0e7-0f3b-412e-8729-9927dd378238{fill:url(#uuid-31c53bc2-ffc7-4af7-8f0d-1bb6b200255d);}.uuid-a1a5aa74-872a-4446-aa5a-5e0c3d6af349{fill:url(#uuid-96e3d643-dae9-4e2c-9ccc-3ed060197953);}.uuid-f0254a07-d456-4916-b78e-8a450d52e208{fill:url(#uuid-a1272ed3-f390-4aac-8c01-6f45c8c5cfe0);}.uuid-41e318a1-c465-4741-9703-82bcc78af4cf{fill:url(#uuid-618bacf2-2ef8-48db-86ac-6192d1988ffb);}.uuid-5bead35a-9d38-4b05-a03d-3aac632f454a{fill:url(#uuid-4169cfe5-979e-4b14-b0c0-f6ad86191198);}</style><linearGradient id="uuid-fcde93ea-ebda-4453-b526-550c409decfb" x1="75.9185" y1="401.6504" x2="105.4053" y2="401.6504" gradientUnits="userSpaceOnUse"><stop offset=".2432" stop-color="#009dff"/><stop offset="1" stop-color="#00ffef"/></linearGradient><linearGradient id="uuid-73ab4eb7-6bf8-4ad3-a0ec-e8e544b10ac1" x1="76.7536" y1="273.8037" x2="143.441" y2="273.8037" xlink:href="#uuid-fcde93ea-ebda-4453-b526-550c409decfb"/><linearGradient id="uuid-fbfc4627-a900-441f-b366-8ccb9edfe895" x1="66.5457" y1="342.1676" x2="123.0924" y2="463.9804" gradientUnits="userSpaceOnUse"><stop offset=".0314" stop-color="#00f4f1"/><stop offset=".1033" stop-color="#00ddf4"/><stop offset=".2646" stop-color="#00aefc"/><stop offset=".3454" stop-color="#009dff"/><stop offset=".418" stop-color="#00b9fa"/><stop offset=".5302" stop-color="#00dff4"/><stop offset=".6205" stop-color="#00f6f0"/><stop offset=".6769" stop-color="#00ffef"/></linearGradient><linearGradient id="uuid-618bacf2-2ef8-48db-86ac-6192d1988ffb" x1="16.401" y1="456.3342" x2="73.8353" y2="583.0215" gradientUnits="userSpaceOnUse"><stop offset=".0616" stop-color="#009dff"/><stop offset=".0703" stop-color="#009efe"/><stop offset=".7666" stop-color="#00ffef"/></linearGradient><linearGradient id="uuid-96e3d643-dae9-4e2c-9ccc-3ed060197953" x1="76.9911" y1="297.7872" x2="18.6706" y2="161.2259" gradientUnits="userSpaceOnUse"><stop offset=".0216" stop-color="#009dff"/><stop offset=".1653" stop-color="#00bafa"/><stop offset=".3768" stop-color="#00dff4"/><stop offset=".5477" stop-color="#00f6f0"/><stop offset=".6552" stop-color="#00ffef"/></linearGradient><linearGradient id="uuid-37770957-14dd-4610-b84a-3ac929d42e03" x1="115.9487" y1="318.1987" x2="154.4559" y2="442.1281" gradientTransform="translate(-8.7432 8.1186) rotate(-1.1087)" gradientUnits="userSpaceOnUse"><stop offset=".2557" stop-color="#009dff"/><stop offset=".3971" stop-color="#00a1fe"/><stop offset=".5514" stop-color="#00aefc"/><stop offset=".7118" stop-color="#00c4f8"/><stop offset=".8754" stop-color="#00e2f3"/><stop offset="1" stop-color="#00ffef"/></linearGradient><linearGradient id="uuid-18472eb7-45b1-4feb-bae1-5fec0c57ecd9" x1="293.7467" y1="490.19" x2="192.4049" y2="388.8482" gradientUnits="userSpaceOnUse"><stop offset="0" stop-color="#00ffef"/><stop offset=".1189" stop-color="#00f5f0"/><stop offset=".3165" stop-color="#00dcf4"/><stop offset=".5674" stop-color="#00b3fb"/><stop offset=".7981" stop-color="#009dff"/><stop offset="1" stop-color="#00f4f1"/></linearGradient><linearGradient id="uuid-31c53bc2-ffc7-4af7-8f0d-1bb6b200255d" x1="395.5239" y1="485.8402" x2="288.1677" y2="378.4839" xlink:href="#uuid-18472eb7-45b1-4feb-bae1-5fec0c57ecd9"/><linearGradient id="uuid-35e23c4d-ae90-45bd-adbd-b5e7efbf81c3" x1="492.5236" y1="489.2009" x2="389.1243" y2="385.8017" xlink:href="#uuid-18472eb7-45b1-4feb-bae1-5fec0c57ecd9"/><linearGradient id="uuid-4169cfe5-979e-4b14-b0c0-f6ad86191198" x1="586.8471" y1="472.0221" x2="489.2054" y2="374.3803" xlink:href="#uuid-18472eb7-45b1-4feb-bae1-5fec0c57ecd9"/><linearGradient id="uuid-023a2fa4-52e7-48eb-b1b0-3611e4a1e9de" x1="690.7799" y1="489.6605" x2="586.5463" y2="385.4268" xlink:href="#uuid-18472eb7-45b1-4feb-bae1-5fec0c57ecd9"/><linearGradient id="uuid-a1272ed3-f390-4aac-8c01-6f45c8c5cfe0" x1="790.8079" y1="490.2491" x2="687.344" y2="386.7852" xlink:href="#uuid-18472eb7-45b1-4feb-bae1-5fec0c57ecd9"/><linearGradient id="uuid-0fa97598-ba42-49c8-b6c1-3fb2c8be8f96" x1="884.0971" y1="472.0232" x2="786.4682" y2="374.3944" xlink:href="#uuid-18472eb7-45b1-4feb-bae1-5fec0c57ecd9"/><linearGradient id="uuid-d0a2e088-fe36-4fc4-924a-bda40345ef3c" x1="958.7146" y1="477.2968" x2="879.1539" y2="397.7361" xlink:href="#uuid-18472eb7-45b1-4feb-bae1-5fec0c57ecd9"/><linearGradient id="uuid-479f49ae-3bfd-4994-a2a7-a9219edbf59c" x1="1053.3084" y1="490.2346" x2="949.8591" y2="386.7852" xlink:href="#uuid-18472eb7-45b1-4feb-bae1-5fec0c57ecd9"/><linearGradient id="uuid-08b04748-a042-47b6-a4b1-8a22c244c88d" x1="1152.0905" y1="488.7134" x2="1048.6917" y2="385.3146" xlink:href="#uuid-18472eb7-45b1-4feb-bae1-5fec0c57ecd9"/></defs><path class="uuid-9f71863e-fdbe-4f2f-9d27-c30358208b36" d="M105.4053,394.9734c-9.7176,4.4033-19.6553,8.9053-29.3653,13.3009-.0379.0152-.0835.0379-.1214.0531v-.0455l29.4868-13.3085Z"/><path class="uuid-60b8e16d-6648-4a17-913e-9e6ba35479a5" d="M131.2783,299.7564c-3.4619,1.5715-6.9238,3.1354-10.3856,4.707l-44.139-61.3194,52.7178,18.1521c8.8597,3.0519,13.5818,10.7348,13.9462,18.6152.4024,8.4573-4.4261,16.3453-12.1394,19.8451Z"/><path class="uuid-b6cc076a-ce57-4292-9054-74d23e7e7078" d="M163.3279,363.9911c-4.6919,4.8662-10.2402,8.982-16.4859,12.0973l-.0531-.091-41.1048,18.7825-.3259.144-29.4397,13.2873v.0455c-13.4009,6.0789-26.3623,11.9457-37.6561,17.062-4.9647,2.2512-9.5505,5.0784-13.689,8.3832-15.3035,12.1806-24.5735,30.8343-24.5735,50.9585v-57.2792c0-41.5276,24.2979-79.2141,62.1233-96.3542h0c5.0936-2.3042,10.1872-4.6161,15.2808-6.9203.0075,0,.0151-.0076.0227-.0076,14.3788-6.5185,28.7499-13.0296,43.1211-19.5405,3.4564-1.569,6.9127-3.1304,10.3691-4.6994,7.701-3.4942,12.5217-11.3696,12.12-19.8134-.3638-7.8678-5.0784-15.5384-13.924-18.5855l-52.6336-18.1231,73.4703,24.9221c17.2894,5.9804,29.1516,21.9433,29.8869,40.218l.432,10.8087c.6822,16.9937-5.6696,33.0173-16.9407,44.7052Z"/><path class="uuid-41e318a1-c465-4741-9703-82bcc78af4cf" d="M75.9185,483.337v34.0165c0,15.0142-5.5244,29.4986-15.5137,40.7063l-40.7971,45.754c-6.8639,7.6963-19.6077,2.8379-19.6077-7.4768v-111.4032c0-20.0921,9.2552-38.716,24.5343-50.8772,4.1319-3.2995,8.7104-6.1222,13.6672-8.3698,11.2758-5.1082,24.2164-10.9655,37.596-17.0348.0378,24.8975.0832,49.7875.1211,74.685Z"/><path class="uuid-a1a5aa74-872a-4446-aa5a-5e0c3d6af349" d="M131.1264,299.7564c-3.4619,1.5715-6.9238,3.1354-10.3856,4.707-14.3942,6.5214-28.7883,13.0428-43.1901,19.5718l.0076-.0228c-24.3547-8.3586-48.7093-16.7249-73.064-25.0835-2.6875-.9262-4.4944-3.4543-4.4944-6.3012v-59.1481c0-8.1916,8.0701-13.9386,15.8138-11.2739l60.788,20.9383,52.7178,18.1521c8.8597,3.0519,13.5818,10.7348,13.9462,18.6152.4024,8.4573-4.4261,16.3453-12.1394,19.8451Z"/><path class="uuid-affb1ebe-9470-4674-a942-469154ec7f6d" d="M182.8194,431.4553l-.2662-.4125,1.3031,67.3347c.1758,9.0858-9.868,14.6865-17.5111,9.7546l-43.4753-28.0586c-9.8422-6.3473-15.8757-17.1725-16.1024-28.8845l-1.0882-56.2299.3236-.1505,40.7989-19.6057.0549.0901c3.5763-1.8711,6.9133-4.0717,9.9814-6.5529,9.5143-7.6947,24.0628-1.4841,24.8689,10.7258.0205.3112.0343.6264.0411.9456l1.0713,51.044Z"/><path class="uuid-8aedfed8-7b2b-42bb-8fdd-4615d0bba163" d="M229.693,376.4911v122.3236c0,10.896-24.5349,11.739-25.6337.8678-.0393-.3889-.0593-.7813-.0593-1.1769v-113.4184c0-14.24,17.2561-25.7838,38.5426-25.7838h.4237s-13.2733,0-13.2733,17.1878ZM282.1959,385.111v113.8332c0,10.9062-24.535,11.7498-25.6337.8685-.0393-.3892-.0593-.782-.0593-1.1779v-52.5314c0-4.7519-5.753-8.604-12.8497-8.604h-13.6978c26.5475,0,26.5475-17.2032,26.5475-17.2032v-43.7892c0-17.2037-13.2741-17.2037-13.2741-17.2037h.4245c21.2865,0,38.5426,11.5545,38.5426,25.8077Z"/><path class="uuid-99c7b0e7-0f3b-412e-8729-9927dd378238" d="M341.2631,515.6954h-4.6995c-18.9142,0-34.2472-10.4015-34.2472-23.2325h0c0-3.2098,3.8357-5.8118,8.5672-5.8118h8.5457c4.7315,0,8.5672,2.602,8.5672,5.8118v5.8112c0,17.4212,13.2666,17.4212,13.2666,17.4212ZM327.9964,376.2015v54.4159c0,4.4092-7.0153,7.2917-12.6674,5.1147-7.7783-2.9959-13.0255-8.6658-13.0255-15.1668v-54.4162c0-4.4092,7.0156-7.2918,12.6676-5.1146,7.7777,2.996,13.0248,8.6659,13.0254,15.167ZM381.6165,366.7147v126.0802c0,12.6476-15.3403,22.9005-34.2636,22.9005h-4.7035s13.2741,0,13.2741-17.1727v-55.2945c0-3.164-3.8376-5.7289-8.5715-5.7289h-17.976c26.5475,0,26.5475-17.1716,26.5475-17.1716v-43.7089c0-6.405,5.2472-11.9913,13.0254-14.9432,5.6521-2.145,12.6676.695,12.6676,5.0391Z"/><path class="uuid-70024b63-2f4c-4a93-9637-77106b292e7d" d="M440.6903,515.6954h-9.1215c-16.4828,0-29.8448-9.0599-29.8448-20.2358v-5.994c0-1.5544,1.8585-2.8145,4.151-2.8145h17.391c2.2925,0,4.151,1.2601,4.151,2.8145v8.8085c0,17.4212,13.2733,17.4212,13.2733,17.4212ZM431.568,359.3033h9.1223s-13.2733,0-13.2733,17.1878v57.8866c0,1.7195-2.3246,3.066-4.8493,2.7434-11.8713-1.5169-20.8436-8.4985-20.8436-16.8815v-40.9717c0-11.0262,13.3616-19.9646,29.8439-19.9646ZM440.731,437.4994h-9.1493c-2.3001,0-4.1648-1.2433-4.1648-2.7769v-14.4103s0,17.1872,13.3141,17.1872ZM479.92,457.4465v38.3019c0,11.0165-13.3615,19.9471-29.8438,19.9471h-9.1229s13.2737,0,13.2737-17.1727v-43.8517s0-17.1716-13.2696-17.1716c4.8268,0,9.1196,0,9.1187,0h0c16.4823,0,29.8438,8.9306,29.8438,19.9471ZM479.92,379.5393v5.9937c0,1.5545-1.8585,2.8146-4.151,2.8146h-17.391c-2.2925,0-4.151-1.2601-4.151-2.8146v-8.8083c0-17.4214-13.2741-17.4214-13.2741-17.4214h9.1231c16.4824,0,29.8439,9.06,29.8439,20.236Z"/><path class="uuid-5bead35a-9d38-4b05-a03d-3aac632f454a" d="M570.2431,359.3033c11.0594.0181,12.0896,9.1636,1.0664,9.6547-.4766.0212-.9585.0321-1.4451.3991h-5.1053c-4.8676-.367-8.8135,1.7982-8.8774,4.4691v124.6974c.0639,7.1641-7.9233,13.3037-19.2772,15.885-5.7146,1.2992-11.9816-1.1226-12.0011-4.5167v-136.0657c.0195-2.6709-3.9264-4.8361-8.794-4.4691h-6.0966c-11.0595-.367-12.0895-9.5127-1.0662-10.0036.4766-.0212.9586-.0321,1.4452-.0501h60.1514Z"/><path class="uuid-f8533eb6-c4b5-4725-9f1e-f651fd399d27" d="M625.141,375.6954v123.642c0,.4008-.02.7985-.0593,1.1925-1.0988,11.0158-25.6337,10.1617-25.6337-.8793v-124.2683c0-11.0409,24.5347-11.8952,25.6337-.8794.0393.394.0593.7917.0593,1.1925ZM678.7611,376.2544v122.633c0,10.8957-24.5347,11.7386-25.6337.8677-.0393-.3889-.0593-.7814-.0593-1.1771v-52.483c0-4.7473-5.753-8.5957-12.8496-8.5957h-13.6995c26.5491,0,26.5491-17.1872,26.5491-17.1872v-43.7486c0-.3956.02-.7881.0593-1.177,1.0991-10.8708,25.6336-10.0279,25.6336.8678Z"/><path class="uuid-f0254a07-d456-4916-b78e-8a450d52e208" d="M733.1333,359.3033h4.7028s-13.2746,0-13.2746,17.1879v43.7485s0,17.1879,26.5491,17.1879c-26.5491,0-26.5491,17.1874-26.5491,17.1874v43.8919c0,17.1885,13.2746,17.1885,13.2746,17.1885h-4.7036c-18.9234,0-34.2639-10.2621-34.2639-22.921v-38.1595c0-5.1415,3.3752-9.7559,8.7241-12.9057,3.8034-2.2396,3.8034-6.3238,0-8.5635-5.349-3.1498-8.7241-7.7641-8.7241-12.9057v-38.0154c0-12.6592,15.3408-22.9215,34.2647-22.9215ZM777.4795,382.5361h0c0,3.2096-3.8993,5.8115-8.7094,5.8115h-8.6892c-4.8101,0-8.7094-2.6019-8.7094-5.8114v-5.8115c0-17.4214-13.489-17.4214-13.489-17.4214h4.7787c19.2296,0,34.8182,10.4017,34.8182,23.2328ZM751.8965,515.6954h-13.7995s13.2746,0,13.2746-17.4452v-5.7799c0-3.2138,3.8373-5.8192,8.571-5.8192h8.551c4.7336,0,8.571,2.6053,8.571,5.8192v6.4688h-.0016c-.0304,9.2575-11.2845,16.7563-25.1664,16.7563Z"/><path class="uuid-d4775175-ffc0-4af9-a491-b7ce060a6caa" d="M867.52,359.3033c11.0594.0181,12.0896,9.1636,1.0664,9.6547-.4766.0212-.9585.0321-1.4451.3991h-5.1053c-4.8676-.367-8.8135,1.7982-9.0098,4.4691v124.6974c.1963,7.1641-7.7909,13.3037-19.1449,15.885-5.7146,1.2992-11.9816-1.1226-12.1335-4.5167v-136.0657c.1519-2.6709-3.7941-4.8361-8.6616-4.4691h-6.0966c-11.0595-.367-12.0895-9.5127-1.0662-10.0036.4766-.0212.9586-.0321,1.4452-.0501h60.1514Z"/><path class="uuid-bc3ecfd9-c2d7-44b2-ace6-18c57bac61b9" d="M903.3673,375.3324c1.3378-10.8708,31.2062-10.0278,31.2062.8678v122.3234c0,.3955-.0243.788-.0722,1.1768-1.3376,10.8709-31.2062,10.0279-31.2062-.8677v-122.3236c0-.3955.0243-.7879.0722-1.1768Z"/><path class="uuid-2764e919-ddf2-49e3-adf2-c3dc0865ea2d" d="M1000.351,359.3033s-13.2746,0-13.2746,17.1879v122.0157c0,17.1885,13.2746,17.1885,13.2746,17.1885h-4.7032c-18.9237,0-34.2643-10.2622-34.2643-22.9212v-110.5491c0-12.6593,15.341-22.9218,34.2651-22.9218h4.7024ZM1039.9945,382.5358h0c0,3.2097-3.8995,5.8117-8.7098,5.8117h-8.6883c-4.8103,0-8.7098-2.602-8.7098-5.8117v-5.8112c0-17.4214-13.489-17.4214-13.489-17.4214h4.7792c19.2293,0,34.8178,10.4016,34.8178,23.2325ZM1014.3537,515.6954h-13.7417s13.2746,0,13.2746-17.4691v-5.7477c0-3.2184,3.8375-5.8275,8.5714-5.8275h8.5502c4.7338,0,8.5714,2.609,8.5714,5.8275v6.4605h-.0032c-.0624,9.2606-11.3296,16.7563-25.2226,16.7563Z"/><path class="uuid-9a419474-002e-4132-8120-7084438c08e6" d="M1099.7716,515.6954h-9.1226c-16.4829,0-29.8449-9.0596-29.8449-20.2352v-5.994c0-1.5547,1.8589-2.8151,4.1519-2.8151h17.3891c2.2931,0,4.1519,1.2603,4.1519,2.8151v8.8079c0,17.4212,13.2746,17.4212,13.2746,17.4212ZM1090.6479,359.3033h9.1229s-13.2737,0-13.2737,17.1878v57.886c0,1.7198-2.325,3.0667-4.8501,2.744-11.8711-1.5171-20.8428-8.4986-20.8428-16.8814v-40.9711c0-11.0265,13.3615-19.9652,29.8438-19.9652ZM1099.8119,437.4994h-9.1493c-2.3006,0-4.1656-1.2435-4.1656-2.7774v-14.4098s0,17.1872,13.3149,17.1872ZM1139,457.4459v38.3019c0,11.0168-13.3627,19.9476-29.8465,19.9476h-9.121s13.2746,0,13.2746-17.1727v-43.8517s0-17.1716-13.2697-17.1716c4.8255,0,9.1193,0,9.1177,0h0c16.4829,0,29.8449,8.9304,29.8449,19.9465ZM1139,376.7247v8.8077c0,1.5548-1.8588,2.8152-4.1517,2.8152h-17.3896c-2.2929,0-4.1517-1.2604-4.1517-2.8152v-8.8077c0-17.4214-13.2721-17.4214-13.2721-17.4214h13.2721c14.1902,0,25.6913,7.8004,25.693,17.4214Z"/></svg>