<?xml version="1.0" encoding="UTF-8"?><svg id="uuid-7e1713ff-092c-4ae4-9840-ec308665db36" xmlns="http://www.w3.org/2000/svg" width="2114" height="812.1354" xmlns:xlink="http://www.w3.org/1999/xlink" viewBox="0 0 2114 812.1354"><defs><style>.uuid-cc769fc6-255c-4c24-b558-f6e520a34e6a{fill:url(#uuid-5f29fd22-acd5-4a2e-b607-76855a29d955);}.uuid-f743ba34-4103-44f5-b63f-586a6f8989d3{fill:url(#uuid-b6aabcd2-8543-4688-bdaf-bf4877a7e895);}.uuid-5ceade70-ec97-4ecb-84c7-b163eb3c8a14{fill:url(#uuid-1c59a148-2b03-453a-8bdd-eb3ef4f12a72);}.uuid-64fc6354-1153-4c48-81d2-ca8d689f0c7d{fill:url(#uuid-9a443f80-22c9-4c74-9b80-a74ce58a51d1);}.uuid-6af906af-4a31-451d-97eb-0f67ff8b1fe4{fill:url(#uuid-89a1a892-22bd-4a09-b764-cefb4fe343eb);}.uuid-c5500dcf-e231-4a74-b4e0-bd2854f92713{fill:url(#uuid-cdf1464a-46d1-4df6-819b-bfc1265197bd);}.uuid-37fc8ab3-cb5e-43c1-b02e-0ed328e74119{fill:url(#uuid-1eeab800-5797-40c5-941f-92f3b6e7cbe2);}.uuid-08ba6e93-0adf-4d20-9ad3-177012c33ff6{fill:url(#uuid-3e310da6-0e2b-42d0-af0e-4a219bf6c41a);}.uuid-a3ac3974-6d44-4951-a554-6470ea4ffe07{fill:url(#uuid-788f7695-497b-4973-ac46-4c33bca8e996);}.uuid-5c0ad162-711b-49b9-8016-525864421f5e{fill:url(#uuid-f191afb7-89a1-4757-9476-8140771f16b5);}.uuid-af90b6c4-3e2a-4a33-af97-efb2af1dc075{fill:url(#uuid-85ff3882-3d0f-496d-bb4a-01e51fdfa4ab);}.uuid-15d3f063-559c-4cb3-8a34-807ce4ef8c9b{fill:url(#uuid-cbc511a2-d831-4f98-9d10-ed9bedd997a9);}.uuid-16e1475d-1fdd-46f9-814f-46af752f7762{fill:url(#uuid-5d5291e5-4bb9-436f-bab2-aeb837d21fcc);}.uuid-61f35d49-5631-4d39-b566-29de15605b78{fill:url(#uuid-26969751-b629-4ac0-bb82-028da5b8c96e);}.uuid-f73105f2-8d6b-42ce-a3fb-39c93905371b{fill:url(#uuid-7d83e1a9-dd59-48ca-a708-4287f911f72f);}.uuid-240841f8-95bb-4a03-be76-000048c034e6{fill:url(#uuid-a43a354a-8eff-4250-9ca5-13089a87f9aa);}</style><linearGradient id="uuid-89a1a892-22bd-4a09-b764-cefb4fe343eb" x1="75.9185" y1="401.6504" x2="105.4053" y2="401.6504" gradientUnits="userSpaceOnUse"><stop offset=".2432" stop-color="#009dff"/><stop offset="1" stop-color="#00ffef"/></linearGradient><linearGradient id="uuid-f191afb7-89a1-4757-9476-8140771f16b5" x1="76.7536" y1="273.8037" x2="143.441" y2="273.8037" xlink:href="#uuid-89a1a892-22bd-4a09-b764-cefb4fe343eb"/><linearGradient id="uuid-3e310da6-0e2b-42d0-af0e-4a219bf6c41a" x1="66.5457" y1="342.1676" x2="123.0924" y2="463.9804" gradientUnits="userSpaceOnUse"><stop offset=".0314" stop-color="#00f4f1"/><stop offset=".1033" stop-color="#00ddf4"/><stop offset=".2646" stop-color="#00aefc"/><stop offset=".3454" stop-color="#009dff"/><stop offset=".418" stop-color="#00b9fa"/><stop offset=".5302" stop-color="#00dff4"/><stop offset=".6205" stop-color="#00f6f0"/><stop offset=".6769" stop-color="#00ffef"/></linearGradient><linearGradient id="uuid-cbc511a2-d831-4f98-9d10-ed9bedd997a9" x1="16.401" y1="456.3342" x2="73.8353" y2="583.0215" gradientUnits="userSpaceOnUse"><stop offset=".0616" stop-color="#009dff"/><stop offset=".0703" stop-color="#009efe"/><stop offset=".7666" stop-color="#00ffef"/></linearGradient><linearGradient id="uuid-85ff3882-3d0f-496d-bb4a-01e51fdfa4ab" x1="76.9911" y1="297.7872" x2="18.6706" y2="161.2259" gradientUnits="userSpaceOnUse"><stop offset=".0216" stop-color="#009dff"/><stop offset=".1653" stop-color="#00bafa"/><stop offset=".3768" stop-color="#00dff4"/><stop offset=".5477" stop-color="#00f6f0"/><stop offset=".6552" stop-color="#00ffef"/></linearGradient><linearGradient id="uuid-9a443f80-22c9-4c74-9b80-a74ce58a51d1" x1="115.9487" y1="318.1987" x2="154.4559" y2="442.1281" gradientTransform="translate(-8.7432 8.1186) rotate(-1.1087)" gradientUnits="userSpaceOnUse"><stop offset=".2557" stop-color="#009dff"/><stop offset=".3971" stop-color="#00a1fe"/><stop offset=".5514" stop-color="#00aefc"/><stop offset=".7118" stop-color="#00c4f8"/><stop offset=".8754" stop-color="#00e2f3"/><stop offset="1" stop-color="#00ffef"/></linearGradient><linearGradient id="uuid-26969751-b629-4ac0-bb82-028da5b8c96e" x1="233.3529" y1="402.0096" x2="192.4266" y2="236.7886" gradientUnits="userSpaceOnUse"><stop offset=".4015" stop-color="#00a4fe"/><stop offset=".5117" stop-color="#00bafa"/><stop offset=".7226" stop-color="#00dff4"/><stop offset=".8928" stop-color="#00f6f0"/><stop offset="1" stop-color="#00ffef"/></linearGradient><linearGradient id="uuid-5f29fd22-acd5-4a2e-b607-76855a29d955" x1="329.0788" y1="378.2977" x2="288.1525" y2="213.0767" xlink:href="#uuid-26969751-b629-4ac0-bb82-028da5b8c96e"/><linearGradient id="uuid-7d83e1a9-dd59-48ca-a708-4287f911f72f" x1="420.5451" y1="355.6409" x2="379.6188" y2="190.4199" xlink:href="#uuid-26969751-b629-4ac0-bb82-028da5b8c96e"/><linearGradient id="uuid-cdf1464a-46d1-4df6-819b-bfc1265197bd" x1="525.246" y1="329.7058" x2="484.3197" y2="164.4848" xlink:href="#uuid-26969751-b629-4ac0-bb82-028da5b8c96e"/><linearGradient id="uuid-b6aabcd2-8543-4688-bdaf-bf4877a7e895" x1="607.2564" y1="309.3913" x2="566.3301" y2="144.1703" xlink:href="#uuid-26969751-b629-4ac0-bb82-028da5b8c96e"/><linearGradient id="uuid-788f7695-497b-4973-ac46-4c33bca8e996" x1="700.673" y1="286.2515" x2="659.7467" y2="121.0304" xlink:href="#uuid-26969751-b629-4ac0-bb82-028da5b8c96e"/><linearGradient id="uuid-1eeab800-5797-40c5-941f-92f3b6e7cbe2" x1="805.2853" y1="260.3383" x2="764.359" y2="95.1173" xlink:href="#uuid-26969751-b629-4ac0-bb82-028da5b8c96e"/><linearGradient id="uuid-a43a354a-8eff-4250-9ca5-13089a87f9aa" x1="871.0132" y1="244.0571" x2="830.0869" y2="78.836" xlink:href="#uuid-26969751-b629-4ac0-bb82-028da5b8c96e"/><linearGradient id="uuid-5d5291e5-4bb9-436f-bab2-aeb837d21fcc" x1="948.0116" y1="224.9841" x2="907.0853" y2="59.763" xlink:href="#uuid-26969751-b629-4ac0-bb82-028da5b8c96e"/><linearGradient id="uuid-1c59a148-2b03-453a-8bdd-eb3ef4f12a72" x1="1041.8234" y1="201.7463" x2="1000.8971" y2="36.5253" xlink:href="#uuid-26969751-b629-4ac0-bb82-028da5b8c96e"/></defs><path class="uuid-6af906af-4a31-451d-97eb-0f67ff8b1fe4" d="M105.4053,394.9734c-9.7176,4.4033-19.6553,8.9053-29.3653,13.3009-.0379.0152-.0835.0379-.1214.0531v-.0455l29.4868-13.3085Z"/><path class="uuid-5c0ad162-711b-49b9-8016-525864421f5e" d="M131.2783,299.7564c-3.4619,1.5715-6.9238,3.1354-10.3856,4.707l-44.139-61.3194,52.7178,18.1521c8.8597,3.0519,13.5818,10.7348,13.9462,18.6152.4024,8.4573-4.4261,16.3453-12.1394,19.8451Z"/><path class="uuid-08ba6e93-0adf-4d20-9ad3-177012c33ff6" d="M163.3279,363.9911c-4.6919,4.8662-10.2402,8.982-16.4859,12.0973l-.0531-.091-41.1048,18.7825-.3259.144-29.4397,13.2873v.0455c-13.4009,6.0789-26.3623,11.9457-37.6561,17.062-4.9647,2.2512-9.5505,5.0784-13.689,8.3832-15.3035,12.1806-24.5735,30.8343-24.5735,50.9585v-57.2792c0-41.5276,24.2979-79.2141,62.1233-96.3542h0c5.0936-2.3042,10.1872-4.6161,15.2808-6.9203.0075,0,.0151-.0076.0227-.0076,14.3788-6.5185,28.7499-13.0296,43.1211-19.5405,3.4564-1.569,6.9127-3.1304,10.3691-4.6994,7.701-3.4942,12.5217-11.3696,12.12-19.8134-.3638-7.8678-5.0784-15.5384-13.924-18.5855l-52.6336-18.1231,73.4703,24.9221c17.2894,5.9804,29.1516,21.9433,29.8869,40.218l.432,10.8087c.6822,16.9937-5.6696,33.0173-16.9407,44.7052Z"/><path class="uuid-15d3f063-559c-4cb3-8a34-807ce4ef8c9b" d="M75.9185,483.337v34.0165c0,15.0142-5.5244,29.4986-15.5137,40.7063l-40.7971,45.754c-6.8639,7.6963-19.6077,2.8379-19.6077-7.4768v-111.4032c0-20.0921,9.2552-38.716,24.5343-50.8772,4.1319-3.2995,8.7104-6.1222,13.6672-8.3698,11.2758-5.1082,24.2164-10.9655,37.596-17.0348.0378,24.8975.0832,49.7875.1211,74.685Z"/><path class="uuid-af90b6c4-3e2a-4a33-af97-efb2af1dc075" d="M131.1264,299.7564c-3.4619,1.5715-6.9238,3.1354-10.3856,4.707-14.3942,6.5214-28.7883,13.0428-43.1901,19.5718l.0076-.0228c-24.3547-8.3586-48.7093-16.7249-73.064-25.0835-2.6875-.9262-4.4944-3.4543-4.4944-6.3012v-59.1481c0-8.1916,8.0701-13.9386,15.8138-11.2739l60.788,20.9383,52.7178,18.1521c8.8597,3.0519,13.5818,10.7348,13.9462,18.6152.4024,8.4573-4.4261,16.3453-12.1394,19.8451Z"/><path class="uuid-64fc6354-1153-4c48-81d2-ca8d689f0c7d" d="M182.8194,431.4553l-.2662-.4125,1.3031,67.3347c.1758,9.0858-9.868,14.6865-17.5111,9.7546l-43.4753-28.0586c-9.8422-6.3473-15.8757-17.1725-16.1024-28.8845l-1.0882-56.2299.3236-.1505,40.7989-19.6057.0549.0901c3.5763-1.8711,6.9133-4.0717,9.9814-6.5529,9.5143-7.6947,24.0628-1.4841,24.8689,10.7258.0205.3112.0343.6264.0411.9456l1.0713,51.044Z"/><path class="uuid-61f35d49-5631-4d39-b566-29de15605b78" d="M229.693,376.4911v122.3236c0,10.896-24.5349,11.739-25.6337.8678-.0393-.3889-.0593-.7813-.0593-1.1769v-113.4184c0-14.24,17.2561-25.7838,38.5426-25.7838h.4237s-13.2733,0-13.2733,17.1878ZM282.1959,385.111v113.8332c0,10.9062-24.535,11.7498-25.6337.8685-.0393-.3892-.0593-.782-.0593-1.1779v-52.5314c0-4.7519-5.753-8.604-12.8497-8.604h-13.6978c26.5475,0,26.5475-17.2032,26.5475-17.2032v-43.7892c0-17.2037-13.2741-17.2037-13.2741-17.2037h.4245c21.2865,0,38.5426,11.5545,38.5426,25.8077Z"/><path class="uuid-cc769fc6-255c-4c24-b558-f6e520a34e6a" d="M341.2631,515.6954h-4.6995c-18.9142,0-34.2472-10.4015-34.2472-23.2325h0c0-3.2098,3.8357-5.8118,8.5672-5.8118h8.5457c4.7315,0,8.5672,2.602,8.5672,5.8118v5.8112c0,17.4212,13.2666,17.4212,13.2666,17.4212ZM327.9964,376.2015v54.4159c0,4.4092-7.0153,7.2917-12.6674,5.1147-7.7783-2.9959-13.0255-8.6658-13.0255-15.1668v-54.4162c0-4.4092,7.0156-7.2918,12.6676-5.1146,7.7777,2.996,13.0248,8.6659,13.0254,15.167ZM381.6165,366.7147v126.0802c0,12.6476-15.3403,22.9005-34.2636,22.9005h-4.7035s13.2741,0,13.2741-17.1727v-55.2945c0-3.164-3.8376-5.7289-8.5715-5.7289h-17.976c26.5475,0,26.5475-17.1716,26.5475-17.1716v-43.7089c0-6.405,5.2472-11.9913,13.0254-14.9432,5.6521-2.145,12.6676.695,12.6676,5.0391Z"/><path class="uuid-f73105f2-8d6b-42ce-a3fb-39c93905371b" d="M440.6903,515.6954h-9.1215c-16.4828,0-29.8448-9.0599-29.8448-20.2358v-5.994c0-1.5544,1.8585-2.8145,4.151-2.8145h17.391c2.2925,0,4.151,1.2601,4.151,2.8145v8.8085c0,17.4212,13.2733,17.4212,13.2733,17.4212ZM431.568,359.3033h9.1223s-13.2733,0-13.2733,17.1878v57.8866c0,1.7195-2.3246,3.066-4.8493,2.7434-11.8713-1.5169-20.8436-8.4985-20.8436-16.8815v-40.9717c0-11.0262,13.3616-19.9646,29.8439-19.9646ZM440.731,437.4994h-9.1493c-2.3001,0-4.1648-1.2433-4.1648-2.7769v-14.4103s0,17.1872,13.3141,17.1872ZM479.92,457.4465v38.3019c0,11.0165-13.3615,19.9471-29.8438,19.9471h-9.1229s13.2737,0,13.2737-17.1727v-43.8517s0-17.1716-13.2696-17.1716c4.8268,0,9.1196,0,9.1187,0h0c16.4823,0,29.8438,8.9306,29.8438,19.9471ZM479.92,379.5393v5.9937c0,1.5545-1.8585,2.8146-4.151,2.8146h-17.391c-2.2925,0-4.151-1.2601-4.151-2.8146v-8.8083c0-17.4214-13.2741-17.4214-13.2741-17.4214h9.1231c16.4824,0,29.8439,9.06,29.8439,20.236Z"/><path class="uuid-c5500dcf-e231-4a74-b4e0-bd2854f92713" d="M570.2431,359.3033c11.0594.0181,12.0896,9.1636,1.0664,9.6547-.4766.0212-.9585.0321-1.4451.3991h-5.1053c-4.8676-.367-8.8135,1.7982-8.8774,4.4691v124.6974c.0639,7.1641-7.9233,13.3037-19.2772,15.885-5.7146,1.2992-11.9816-1.1226-12.0011-4.5167v-136.0657c.0195-2.6709-3.9264-4.8361-8.794-4.4691h-6.0966c-11.0595-.367-12.0895-9.5127-1.0662-10.0036.4766-.0212.9586-.0321,1.4452-.0501h60.1514Z"/><path class="uuid-f743ba34-4103-44f5-b63f-586a6f8989d3" d="M625.141,375.6954v123.642c0,.4008-.02.7985-.0593,1.1925-1.0988,11.0158-25.6337,10.1617-25.6337-.8793v-124.2683c0-11.0409,24.5347-11.8952,25.6337-.8794.0393.394.0593.7917.0593,1.1925ZM678.7611,376.2544v122.633c0,10.8957-24.5347,11.7386-25.6337.8677-.0393-.3889-.0593-.7814-.0593-1.1771v-52.483c0-4.7473-5.753-8.5957-12.8496-8.5957h-13.6995c26.5491,0,26.5491-17.1872,26.5491-17.1872v-43.7486c0-.3956.02-.7881.0593-1.177,1.0991-10.8708,25.6336-10.0279,25.6336.8678Z"/><path class="uuid-a3ac3974-6d44-4951-a554-6470ea4ffe07" d="M733.1333,359.3033h4.7028s-13.2746,0-13.2746,17.1879v43.7485s0,17.1879,26.5491,17.1879c-26.5491,0-26.5491,17.1874-26.5491,17.1874v43.8919c0,17.1885,13.2746,17.1885,13.2746,17.1885h-4.7036c-18.9234,0-34.2639-10.2621-34.2639-22.921v-38.1595c0-5.1415,3.3752-9.7559,8.7241-12.9057,3.8034-2.2396,3.8034-6.3238,0-8.5635-5.349-3.1498-8.7241-7.7641-8.7241-12.9057v-38.0154c0-12.6592,15.3408-22.9215,34.2647-22.9215ZM777.4795,382.5361h0c0,3.2096-3.8993,5.8115-8.7094,5.8115h-8.6892c-4.8101,0-8.7094-2.6019-8.7094-5.8114v-5.8115c0-17.4214-13.489-17.4214-13.489-17.4214h4.7787c19.2296,0,34.8182,10.4017,34.8182,23.2328ZM751.8965,515.6954h-13.7995s13.2746,0,13.2746-17.4452v-5.7799c0-3.2138,3.8373-5.8192,8.571-5.8192h8.551c4.7336,0,8.571,2.6053,8.571,5.8192v6.4688h-.0016c-.0304,9.2575-11.2845,16.7563-25.1664,16.7563Z"/><path class="uuid-37fc8ab3-cb5e-43c1-b02e-0ed328e74119" d="M867.52,359.3033c11.0594.0181,12.0896,9.1636,1.0664,9.6547-.4766.0212-.9585.0321-1.4451.3991h-5.1053c-4.8676-.367-8.8135,1.7982-9.0098,4.4691v124.6974c.1963,7.1641-7.7909,13.3037-19.1449,15.885-5.7146,1.2992-11.9816-1.1226-12.1335-4.5167v-136.0657c.1519-2.6709-3.7941-4.8361-8.6616-4.4691h-6.0966c-11.0595-.367-12.0895-9.5127-1.0662-10.0036.4766-.0212.9586-.0321,1.4452-.0501h60.1514Z"/><path class="uuid-240841f8-95bb-4a03-be76-000048c034e6" d="M903.3673,375.3324c1.3378-10.8708,31.2062-10.0278,31.2062.8678v122.3234c0,.3955-.0243.788-.0722,1.1768-1.3376,10.8709-31.2062,10.0279-31.2062-.8677v-122.3236c0-.3955.0243-.7879.0722-1.1768Z"/><path class="uuid-16e1475d-1fdd-46f9-814f-46af752f7762" d="M1000.351,359.3033s-13.2746,0-13.2746,17.1879v122.0157c0,17.1885,13.2746,17.1885,13.2746,17.1885h-4.7032c-18.9237,0-34.2643-10.2622-34.2643-22.9212v-110.5491c0-12.6593,15.341-22.9218,34.2651-22.9218h4.7024ZM1039.9945,382.5358h0c0,3.2097-3.8995,5.8117-8.7098,5.8117h-8.6883c-4.8103,0-8.7098-2.602-8.7098-5.8117v-5.8112c0-17.4214-13.489-17.4214-13.489-17.4214h4.7792c19.2293,0,34.8178,10.4016,34.8178,23.2325ZM1014.3537,515.6954h-13.7417s13.2746,0,13.2746-17.4691v-5.7477c0-3.2184,3.8375-5.8275,8.5714-5.8275h8.5502c4.7338,0,8.5714,2.609,8.5714,5.8275v6.4605h-.0032c-.0624,9.2606-11.3296,16.7563-25.2226,16.7563Z"/><path class="uuid-5ceade70-ec97-4ecb-84c7-b163eb3c8a14" d="M1099.7716,515.6954h-9.1226c-16.4829,0-29.8449-9.0596-29.8449-20.2352v-5.994c0-1.5547,1.8589-2.8151,4.1519-2.8151h17.3891c2.2931,0,4.1519,1.2603,4.1519,2.8151v8.8079c0,17.4212,13.2746,17.4212,13.2746,17.4212ZM1090.6479,359.3033h9.1229s-13.2737,0-13.2737,17.1878v57.886c0,1.7198-2.325,3.0667-4.8501,2.744-11.8711-1.5171-20.8428-8.4986-20.8428-16.8814v-40.9711c0-11.0265,13.3615-19.9652,29.8438-19.9652ZM1099.8119,437.4994h-9.1493c-2.3006,0-4.1656-1.2435-4.1656-2.7774v-14.4098s0,17.1872,13.3149,17.1872ZM1139,457.4459v38.3019c0,11.0168-13.3627,19.9476-29.8465,19.9476h-9.121s13.2746,0,13.2746-17.1727v-43.8517s0-17.1716-13.2697-17.1716c4.8255,0,9.1193,0,9.1177,0h0c16.4829,0,29.8449,8.9304,29.8449,19.9465ZM1139,376.7247v8.8077c0,1.5548-1.8588,2.8152-4.1517,2.8152h-17.3896c-2.2929,0-4.1517-1.2604-4.1517-2.8152v-8.8077c0-17.4214-13.2721-17.4214-13.2721-17.4214h13.2721c14.1902,0,25.6913,7.8004,25.693,17.4214Z"/></svg>