<?xml version="1.0" encoding="UTF-8"?><svg id="uuid-ab898a56-8a10-48cb-a11e-57fe1e3def24" xmlns="http://www.w3.org/2000/svg" xmlns:xlink="http://www.w3.org/1999/xlink" viewBox="0 0 1829 812.14"><defs><style>.uuid-e60d79f0-da9e-4261-b845-2dd0e796cef6{fill:url(#uuid-bb91c289-901a-4c05-b98f-e7926bc87cbc);}.uuid-002f0e2b-029c-4140-9a09-fd98109b1ce3{fill:url(#uuid-61180a53-1888-42ee-ba19-f494e5a4966c);}.uuid-e79ce549-798c-44f6-8e40-28119bf33bab{fill:url(#uuid-4a6b0f62-8505-44a3-a0d7-416d7b033f2e);}.uuid-4b35adb6-d513-4b9c-bd45-07d662b7753b{fill:url(#uuid-d847a4c5-0d3c-4f9d-bcac-30465dd9ae87);}.uuid-40a352ed-65f9-4b6e-a4fa-732155d6b90f{fill:url(#uuid-f7ce92c7-965c-4288-879f-037bc045c8cb);}.uuid-0d7f55fb-83b9-4c7e-894c-ddc0ec616554{fill:url(#uuid-629144e4-b8cb-4415-af02-501ca4287183);}</style><linearGradient id="uuid-4a6b0f62-8505-44a3-a0d7-416d7b033f2e" x1="288.46" y1="403.42" x2="334.26" y2="403.42" gradientTransform="translate(-.75 .63) rotate(-.11)" gradientUnits="userSpaceOnUse"><stop offset=".24" stop-color="#009dff"/><stop offset="1" stop-color="#00ffef"/></linearGradient><linearGradient id="uuid-bb91c289-901a-4c05-b98f-e7926bc87cbc" x1="289.33" y1="243.77" x2="392.76" y2="243.77" xlink:href="#uuid-4a6b0f62-8505-44a3-a0d7-416d7b033f2e"/><linearGradient id="uuid-d847a4c5-0d3c-4f9d-bcac-30465dd9ae87" x1="151.77" y1="416.15" x2="265.11" y2="553.91" gradientTransform="translate(-.75 .63) rotate(-.11)" gradientUnits="userSpaceOnUse"><stop offset=".02" stop-color="#009dff"/><stop offset=".05" stop-color="#00a0fe"/><stop offset=".23" stop-color="#00adfc"/><stop offset=".38" stop-color="#00b2fc"/><stop offset=".51" stop-color="#00b9fa"/><stop offset=".69" stop-color="#00ccf7"/><stop offset=".9" stop-color="#00edf2"/><stop offset="1" stop-color="#00ffef"/></linearGradient><linearGradient id="uuid-629144e4-b8cb-4415-af02-501ca4287183" x1="250.79" y1="276.9" x2="363.47" y2="84.34" gradientTransform="translate(-.75 .63) rotate(-.11)" gradientUnits="userSpaceOnUse"><stop offset="0" stop-color="#00ffef"/><stop offset=".04" stop-color="#00f6f0"/><stop offset=".27" stop-color="#00caf8"/><stop offset=".48" stop-color="#00c4f8"/><stop offset="1" stop-color="#00c2f9"/></linearGradient><linearGradient id="uuid-f7ce92c7-965c-4288-879f-037bc045c8cb" x1="393.13" y1="-309.63" x2="398.33" y2="-134.45" gradientTransform="translate(65.29 720.42) rotate(-8.27) scale(.89 1.15)" gradientUnits="userSpaceOnUse"><stop offset=".32" stop-color="#009dff"/><stop offset=".42" stop-color="#00b4fb"/><stop offset=".61" stop-color="#00dcf4"/><stop offset=".76" stop-color="#00f5f0"/><stop offset=".85" stop-color="#00ffef"/></linearGradient><linearGradient id="uuid-61180a53-1888-42ee-ba19-f494e5a4966c" x1="290.57" y1="350.29" x2="383.15" y2="549.73" gradientTransform="translate(-.75 .63) rotate(-.11)" gradientUnits="userSpaceOnUse"><stop offset="0" stop-color="#009dff"/><stop offset=".21" stop-color="#00ddf4"/><stop offset=".29" stop-color="#00f4f1"/><stop offset=".37" stop-color="#00e1f3"/><stop offset=".5" stop-color="#00caf7"/><stop offset=".64" stop-color="#00b9fa"/><stop offset=".8" stop-color="#00b0fb"/><stop offset="1" stop-color="#00adfc"/></linearGradient></defs><path class="uuid-e79ce549-798c-44f6-8e40-28119bf33bab" d="M334.28,395.07c-15.15,5.55-30.64,11.23-45.78,16.76v-.06s45.78-16.71,45.78-16.71Z"/><path class="uuid-e60d79f0-da9e-4261-b845-2dd0e796cef6" d="M373.82,276.09c-5.37,1.97-10.75,3.94-16.12,5.91l-68.72-76.44,81.94,22.51c27.79,7.21,28.71,38.87,2.9,48.02Z"/><path class="uuid-4b35adb6-d513-4b9c-bd45-07d662b7753b" d="M277.74,477.56l.08,42.58c4.28,40.24-56.51,81.82-79.34,108.37-9.68,9.65-27.69,3.6-27.72-9.31l-.27-139.44c.44-60.84,58.39-76.43,106.89-95.69.11,31.16.24,62.32.35,93.48Z"/><path class="uuid-0d7f55fb-83b9-4c7e-894c-ddc0ec616554" d="M373.56,276.09c-27.65,10.16-55.29,20.31-82.95,30.48v-.03c-37.74-10.36-75.49-20.74-113.25-31.1-4.17-1.15-6.97-4.3-6.98-7.86l-.14-73.86c-.02-10.23,12.47-17.43,24.47-14.13,43.75,12.1,132.47,36.47,175.95,48.47,27.71,7.21,28.64,38.87,2.89,48.02Z"/><path class="uuid-40a352ed-65f9-4b6e-a4fa-732155d6b90f" d="M421.7,383.56c-1.22,4.51,24.96,104.04,26.44,110.96,1.91,12.97-21.47,19.8-32.87,13.98-105.99-51.33-86.47-39.7-104.17-152.03.47-.29,52.37-34.59,52.85-34.9l.09.12c31.07-13.49-7.4-51.45,48.64.33.28,1.15,8.79,60.22,9.02,61.54Z"/><path class="uuid-002f0e2b-029c-4140-9a09-fd98109b1ce3" d="M424.4,356.2c-7.29,6.1-15.91,11.27-25.62,15.18l-.08-.11c-26.96,10-83.56,30.85-110.2,40.51v.06c-49.87,18.37-117.47,33.53-117.95,95.79-12.22-162.02,45.71-175.89,187.14-225.63,15.11-4.63,36.76-12.79,34.93-30.73-.58-9.84-7.94-19.42-21.71-23.2,0,0-81.94-22.51-81.94-22.51,39.22,16.36,161.27,22.22,160.98,81.16,3.55,26.08-3.36,51.7-25.55,69.49Z"/></svg>